<svg width="24" height="25" viewBox="0 0 24 25" fill="none" xmlns="http://www.w3.org/2000/svg">
<g clip-path="url(#clip0_17_287)">
<path d="M24 12.64C24 6.01264 18.6274 0.640015 12 0.640015C5.37262 0.640015 0 6.01255 0 12.64C0 18.6295 4.38825 23.594 10.125 24.4942V16.1088H7.07812V12.64H10.125V9.99627C10.125 6.98876 11.9166 5.32751 14.6575 5.32751C15.9705 5.32751 17.3438 5.56189 17.3438 5.56189V8.51501H15.8306C14.3398 8.51501 13.875 9.44005 13.875 10.3891V12.64H17.2031L16.6711 16.1088H13.875V24.4942C19.6117 23.594 24 18.6296 24 12.64Z" fill="#1877F2"/>
<path d="M16.6711 16.1088L17.2031 12.64H13.875V10.3891C13.875 9.43995 14.3399 8.51501 15.8306 8.51501H17.3438V5.56189C17.3438 5.56189 15.9705 5.32751 14.6575 5.32751C11.9166 5.32751 10.125 6.98876 10.125 9.99626V12.64H7.07812V16.1088H10.125V24.4942C10.7453 24.5914 11.3722 24.6402 12 24.64C12.6278 24.6402 13.2547 24.5915 13.875 24.4942V16.1088H16.6711Z" fill="white"/>
</g>
<defs>
<clipPath id="clip0_17_287">
<rect width="24" height="24" fill="white" transform="translate(0 0.640015)"/>
</clipPath>
</defs>
</svg>
